Chivo-Regular.ufo
<glyph name="numbersign" format="1">
  <advance width="643"/>
  <unicode hex="0023"/>
  <outline>
    <contour>
      <point x="479" y="696" type="line"/>
      <point x="432" y="486" type="line"/>
      <point x="282" y="486" type="line"/>
      <point x="329" y="696" type="line"/>
      <point x="253" y="696" type="line"/>
      <point x="206" y="486" type="line"/>
      <point x="68" y="486" type="line"/>
      <point x="68" y="410" type="line"/>
      <point x="189" y="410" type="line"/>
      <point x="155" y="255" type="line"/>
      <point x="28" y="255" type="line"/>
      <point x="28" y="179" type="line"/>
      <point x="138" y="179" type="line"/>
      <point x="98" y="0" type="line"/>
      <point x="174" y="0" type="line"/>
      <point x="214" y="179" type="line"/>
      <point x="364" y="179" type="line"/>
      <point x="324" y="0" type="line"/>
      <point x="400" y="0" type="line"/>
      <point x="440" y="179" type="line"/>
      <point x="573" y="179" type="line"/>
      <point x="573" y="255" type="line"/>
      <point x="457" y="255" type="line"/>
      <point x="491" y="410" type="line"/>
      <point x="613" y="410" type="line"/>
      <point x="613" y="486" type="line"/>
      <point x="508" y="486" type="line"/>
      <point x="555" y="696" type="line"/>
    </contour>
    <contour>
      <point x="381" y="255" type="line"/>
      <point x="231" y="255" type="line"/>
      <point x="265" y="410" type="line"/>
      <point x="415" y="410" type="line"/>
    </contour>
  </outline>
</glyph>
<glyph name="percent" format="1">
  <advance width="699"/>
  <unicode hex="0025"/>
  <outline>
    <contour>
      <point x="525" y="686" type="line"/>
      <point x="107" y="0" type="line"/>
      <point x="177" y="0" type="line"/>
      <point x="593" y="686" type="line"/>
    </contour>
    <contour>
      <point x="151" y="685" type="line" smooth="yes"/>
      <point x="80" y="685"/>
      <point x="30" y="633"/>
      <point x="30" y="564" type="curve" smooth="yes"/>
      <point x="30" y="457" type="line" smooth="yes"/>
      <point x="30" y="388"/>
      <point x="82" y="336"/>
      <point x="151" y="336" type="curve" smooth="yes"/>
      <point x="158" y="336" type="line" smooth="yes"/>
      <point x="227" y="336"/>
      <point x="279" y="388"/>
      <point x="279" y="457" type="curve" smooth="yes"/>
      <point x="279" y="564" type="line" smooth="yes"/>
      <point x="279" y="633"/>
      <point x="229" y="685"/>
      <point x="158" y="685" type="curve" smooth="yes"/>
    </contour>
    <contour>
      <point x="194" y="630"/>
      <point x="215" y="604"/>
      <point x="215" y="571" type="curve" smooth="yes"/>
      <point x="215" y="450" type="line" smooth="yes"/>
      <point x="215" y="417"/>
      <point x="194" y="391"/>
      <point x="155" y="391" type="curve" smooth="yes"/>
      <point x="116" y="391"/>
      <point x="94" y="417"/>
      <point x="94" y="450" type="curve" smooth="yes"/>
      <point x="94" y="571" type="line" smooth="yes"/>
      <point x="94" y="604"/>
      <point x="116" y="630"/>
      <point x="155" y="630" type="curve" smooth="yes"/>
    </contour>
    <contour>
      <point x="541" y="348" type="line" smooth="yes"/>
      <point x="472" y="348"/>
      <point x="420" y="296"/>
      <point x="420" y="227" type="curve" smooth="yes"/>
      <point x="420" y="120" type="line" smooth="yes"/>
      <point x="420" y="51"/>
      <point x="470" y="-1"/>
      <point x="541" y="-1" type="curve" smooth="yes"/>
      <point x="548" y="-1" type="line" smooth="yes"/>
      <point x="619" y="-1"/>
      <point x="669" y="51"/>
      <point x="669" y="120" type="curve" smooth="yes"/>
      <point x="669" y="227" type="line" smooth="yes"/>
      <point x="669" y="296"/>
      <point x="617" y="348"/>
      <point x="548" y="348" type="curve" smooth="yes"/>
    </contour>
    <contour>
      <point x="584" y="293"/>
      <point x="605" y="267"/>
      <point x="605" y="234" type="curve" smooth="yes"/>
      <point x="605" y="113" type="line" smooth="yes"/>
      <point x="605" y="80"/>
      <point x="584" y="54"/>
      <point x="545" y="54" type="curve" smooth="yes"/>
      <point x="506" y="54"/>
      <point x="484" y="80"/>
      <point x="484" y="113" type="curve" smooth="yes"/>
      <point x="484" y="234" type="line" smooth="yes"/>
      <point x="484" y="267"/>
      <point x="506" y="293"/>
      <point x="545" y="293" type="curve" smooth="yes"/>
    </contour>
  </outline>
</glyph>
<glyph name="parenleft" format="1">
  <advance width="289"/>
  <unicode hex="0028"/>
  <outline>
    <contour>
      <point x="208" y="686" type="line"/>
      <point x="105" y="569"/>
      <point x="49" y="420"/>
      <point x="49" y="264" type="curve" smooth="yes"/>
      <point x="49" y="108"/>
      <point x="105" y="-40"/>
      <point x="208" y="-157" type="curve"/>
      <point x="260" y="-157" type="line"/>
      <point x="181" y="-29"/>
      <point x="131" y="117"/>
      <point x="131" y="265" type="curve" smooth="yes"/>
      <point x="131" y="412"/>
      <point x="181" y="562"/>
      <point x="260" y="686" type="curve"/>
    </contour>
  </outline>
</glyph>
<glyph name="parenright" format="1">
  <advance width="288"/>
  <unicode hex="0029"/>
  <outline>
    <contour>
      <point x="29" y="686" type="line"/>
      <point x="105" y="564"/>
      <point x="157" y="410"/>
      <point x="157" y="265" type="curve" smooth="yes"/>
      <point x="157" y="116"/>
      <point x="106" y="-34"/>
      <point x="29" y="-157" type="curve"/>
      <point x="81" y="-157" type="line"/>
      <point x="184" y="-40"/>
      <point x="240" y="109"/>
      <point x="240" y="265" type="curve" smooth="yes"/>
      <point x="240" y="420"/>
      <point x="184" y="569"/>
      <point x="81" y="686" type="curve"/>
    </contour>
  </outline>
</glyph>
<glyph name="plus" format="1">
  <advance width="615"/>
  <unicode hex="002B"/>
  <outline>
    <contour>
      <point x="265" y="511" type="line"/>
      <point x="265" y="297" type="line"/>
      <point x="51" y="297" type="line"/>
      <point x="51" y="213" type="line"/>
      <point x="265" y="213" type="line"/>
      <point x="265" y="0" type="line"/>
      <point x="348" y="0" type="line"/>
      <point x="348" y="213" type="line"/>
      <point x="563" y="213" type="line"/>
      <point x="563" y="297" type="line"/>
      <point x="348" y="297" type="line"/>
      <point x="348" y="511" type="line"/>
    </contour>
  </outline>
</glyph>
<glyph name="hyphen" format="1">
  <advance width="391"/>
  <unicode hex="002D"/>
  <outline>
    <contour>
      <point x="69" y="319" type="line"/>
      <point x="69" y="221" type="line"/>
      <point x="322" y="221" type="line"/>
      <point x="322" y="319" type="line"/>
    </contour>
  </outline>
</glyph>
<glyph name="five" format="1">
  <advance width="615"/>
  <unicode hex="0035"/>
  <outline>
    <contour>
      <point x="123" y="686" type="line"/>
      <point x="95" y="307" type="line"/>
      <point x="183" y="294" type="line"/>
      <point x="212" y="340"/>
      <point x="255" y="363"/>
      <point x="312" y="363" type="curve" smooth="yes"/>
      <point x="387" y="363"/>
      <point x="447" y="306"/>
      <point x="447" y="225" type="curve" smooth="yes"/>
      <point x="447" y="135"/>
      <point x="390" y="79"/>
      <point x="308" y="79" type="curve" smooth="yes"/>
      <point x="230" y="79"/>
      <point x="171" y="137"/>
      <point x="169" y="214" type="curve"/>
      <point x="71" y="214" type="line"/>
      <point x="73" y="85"/>
      <point x="171" y="-10"/>
      <point x="308" y="-10" type="curve" smooth="yes"/>
      <point x="451" y="-10"/>
      <point x="545" y="85"/>
      <point x="545" y="222" type="curve" smooth="yes"/>
      <point x="545" y="345"/>
      <point x="482" y="447"/>
      <point x="320" y="447" type="curve" smooth="yes"/>
      <point x="276" y="447"/>
      <point x="233" y="430"/>
      <point x="190" y="396" type="curve"/>
      <point x="205" y="597" type="line"/>
      <point x="509" y="597" type="line"/>
      <point x="509" y="686" type="line"/>
    </contour>
  </outline>
</glyph>
<glyph name="nine" format="1">
  <advance width="615"/>
  <unicode hex="0039"/>
  <outline>
    <contour>
      <point x="160" y="696"/>
      <point x="63" y="603"/>
      <point x="63" y="465" type="curve" smooth="yes"/>
      <point x="63" y="347"/>
      <point x="162" y="254"/>
      <point x="283" y="254" type="curve" smooth="yes"/>
      <point x="345" y="254"/>
      <point x="397" y="276"/>
      <point x="438" y="320" type="curve"/>
      <point x="438" y="212" type="line" smooth="yes"/>
      <point x="438" y="139"/>
      <point x="378" y="79"/>
      <point x="305" y="79" type="curve" smooth="yes"/>
      <point x="225" y="79"/>
      <point x="172" y="129"/>
      <point x="172" y="213" type="curve"/>
      <point x="74" y="213" type="line"/>
      <point x="74" y="82"/>
      <point x="167" y="-10"/>
      <point x="305" y="-10" type="curve" smooth="yes"/>
      <point x="432" y="-10"/>
      <point x="536" y="94"/>
      <point x="536" y="221" type="curve" smooth="yes"/>
      <point x="536" y="463" type="line" smooth="yes"/>
      <point x="536" y="598"/>
      <point x="438" y="696"/>
      <point x="299" y="696" type="curve" smooth="yes"/>
    </contour>
    <contour>
      <point x="377" y="607"/>
      <point x="438" y="553"/>
      <point x="438" y="475" type="curve" smooth="yes"/>
      <point x="438" y="397"/>
      <point x="377" y="343"/>
      <point x="299" y="343" type="curve" smooth="yes"/>
      <point x="222" y="343"/>
      <point x="161" y="395"/>
      <point x="161" y="475" type="curve" smooth="yes"/>
      <point x="161" y="555"/>
      <point x="222" y="607"/>
      <point x="299" y="607" type="curve" smooth="yes"/>
    </contour>
  </outline>
</glyph>
<glyph name="equal" format="1">
  <advance width="615"/>
  <unicode hex="003D"/>
  <outline>
    <contour>
      <point x="55" y="402" type="line"/>
      <point x="55" y="318" type="line"/>
      <point x="559" y="318" type="line"/>
      <point x="559" y="402" type="line"/>
    </contour>
    <contour>
      <point x="55" y="189" type="line"/>
      <point x="55" y="106" type="line"/>
      <point x="559" y="106" type="line"/>
      <point x="559" y="189" type="line"/>
    </contour>
  </outline>
</glyph>
<glyph name="question" format="1">
  <advance width="502"/>
  <unicode hex="003F"/>
  <outline>
    <contour>
      <point x="246" y="696" type="line" smooth="yes"/>
      <point x="102" y="696"/>
      <point x="26" y="588"/>
      <point x="26" y="496" type="curve" smooth="yes"/>
      <point x="26" y="479"/>
      <point x="27" y="466"/>
      <point x="29" y="458" type="curve"/>
      <point x="127" y="458" type="line"/>
      <point x="125" y="495" type="line"/>
      <point x="125" y="562"/>
      <point x="172" y="607"/>
      <point x="245" y="607" type="curve" smooth="yes"/>
      <point x="312" y="607"/>
      <point x="363" y="561"/>
      <point x="363" y="498" type="curve" smooth="yes"/>
      <point x="363" y="400"/>
      <point x="207" y="350"/>
      <point x="207" y="249" type="curve" smooth="yes"/>
      <point x="207" y="185" type="line"/>
      <point x="307" y="185" type="line"/>
      <point x="307" y="234" type="line" smooth="yes"/>
      <point x="307" y="316"/>
      <point x="462" y="343"/>
      <point x="462" y="492" type="curve" smooth="yes"/>
      <point x="462" y="595"/>
      <point x="391" y="696"/>
      <point x="252" y="696" type="curve" smooth="yes"/>
    </contour>
    <contour>
      <point x="205" y="111" type="line"/>
      <point x="205" y="0" type="line"/>
      <point x="309" y="0" type="line"/>
      <point x="309" y="111" type="line"/>
    </contour>
  </outline>
</glyph>
<glyph name="A" format="1">
  <advance width="652"/>
  <unicode hex="0041"/>
  <outline>
    <contour>
      <point x="272" y="686" type="line"/>
      <point x="4" y="0" type="line"/>
      <point x="99" y="0" type="line"/>
      <point x="156" y="149" type="line"/>
      <point x="484" y="149" type="line"/>
      <point x="542" y="0" type="line"/>
      <point x="648" y="0" type="line"/>
      <point x="380" y="686" type="line"/>
    </contour>
    <contour>
      <point x="450" y="238" type="line"/>
      <point x="191" y="238" type="line"/>
      <point x="318" y="568" type="line"/>
      <point x="324" y="568" type="line"/>
    </contour>
    <contour>
      <point x="627" y="10" type="move" name="ogonek"/>
    </contour>
    <contour>
      <point x="326" y="686" type="move" name="top"/>
    </contour>
  </outline>
</glyph>
<glyph name="B" format="1">
  <advance width="651"/>
  <unicode hex="0042"/>
  <outline>
    <contour>
      <point x="92" y="686" type="line"/>
      <point x="92" y="0" type="line"/>
      <point x="402" y="0" type="line" smooth="yes"/>
      <point x="499" y="0"/>
      <point x="592" y="73"/>
      <point x="592" y="187" type="curve" smooth="yes"/>
      <point x="592" y="283"/>
      <point x="531" y="341"/>
      <point x="456" y="353" type="curve"/>
      <point x="456" y="358" type="line"/>
      <point x="538" y="381"/>
      <point x="576" y="439"/>
      <point x="576" y="518" type="curve" smooth="yes"/>
      <point x="576" y="612"/>
      <point x="495" y="686"/>
      <point x="396" y="686" type="curve" smooth="yes"/>
    </contour>
    <contour>
      <point x="446" y="305"/>
      <point x="494" y="257"/>
      <point x="494" y="197" type="curve" smooth="yes"/>
      <point x="494" y="137"/>
      <point x="446" y="89"/>
      <point x="386" y="89" type="curve" smooth="yes"/>
      <point x="190" y="89" type="line"/>
      <point x="190" y="305" type="line"/>
      <point x="386" y="305" type="line" smooth="yes"/>
    </contour>
    <contour>
      <point x="432" y="597"/>
      <point x="478" y="551"/>
      <point x="478" y="495" type="curve" smooth="yes"/>
      <point x="478" y="436"/>
      <point x="427" y="394"/>
      <point x="376" y="394" type="curve" smooth="yes"/>
      <point x="190" y="394" type="line"/>
      <point x="190" y="597" type="line"/>
      <point x="376" y="597" type="line" smooth="yes"/>
    </contour>
  </outline>
</glyph>
<glyph name="E" format="1">
  <advance width="593"/>
  <unicode hex="0045"/>
  <outline>
    <contour>
      <point x="92" y="686" type="line"/>
      <point x="92" y="0" type="line"/>
      <point x="549" y="0" type="line"/>
      <point x="535" y="89" type="line"/>
      <point x="190" y="89" type="line"/>
      <point x="190" y="306" type="line"/>
      <point x="497" y="306" type="line"/>
      <point x="497" y="395" type="line"/>
      <point x="190" y="395" type="line"/>
      <point x="190" y="597" type="line"/>
      <point x="529" y="597" type="line"/>
      <point x="542" y="686" type="line"/>
    </contour>
    <contour>
      <point x="524" y="10" type="move" name="ogonek"/>
    </contour>
    <contour>
      <point x="297" y="0" type="move" name="bottom"/>
    </contour>
    <contour>
      <point x="297" y="686" type="move" name="top"/>
    </contour>
  </outline>
</glyph>
<glyph name="J" format="1">
  <advance width="526"/>
  <unicode hex="004A"/>
  <outline>
    <contour>
      <point x="341" y="686" type="line"/>
      <point x="341" y="181" type="line" smooth="yes"/>
      <point x="341" y="118"/>
      <point x="296" y="79"/>
      <point x="235" y="79" type="curve" smooth="yes"/>
      <point x="172" y="79"/>
      <point x="127" y="121"/>
      <point x="127" y="181" type="curve" smooth="yes"/>
      <point x="127" y="208" type="line"/>
      <point x="29" y="208" type="line"/>
      <point x="29" y="187" type="line" smooth="yes"/>
      <point x="29" y="57"/>
      <point x="108" y="-10"/>
      <point x="227" y="-10" type="curve" smooth="yes"/>
      <point x="236" y="-10" type="line" smooth="yes"/>
      <point x="356" y="-10"/>
      <point x="439" y="65"/>
      <point x="439" y="187" type="curve" smooth="yes"/>
      <point x="439" y="686" type="line"/>
    </contour>
    <contour>
      <point x="323" y="686" type="move" name="top"/>
    </contour>
  </outline>
</glyph>
<glyph name="L" format="1">
  <advance width="536"/>
  <unicode hex="004C"/>
  <outline>
    <contour>
      <point x="92" y="686" type="line"/>
      <point x="92" y="0" type="line"/>
      <point x="519" y="0" type="line"/>
      <point x="505" y="89" type="line"/>
      <point x="190" y="89" type="line"/>
      <point x="190" y="686" type="line"/>
    </contour>
    <contour>
      <point x="168" y="686" type="move" name="top"/>
    </contour>
    <contour>
      <point x="268" y="0" type="move" name="bottom"/>
    </contour>
    <contour>
      <point x="476" y="686" type="move" name="topright"/>
    </contour>
  </outline>
</glyph>
<glyph name="M" format="1">
  <advance width="938"/>
  <unicode hex="004D"/>
  <outline>
    <contour>
      <point x="693" y="686" type="line"/>
      <point x="471" y="146" type="line"/>
      <point x="467" y="146" type="line"/>
      <point x="246" y="686" type="line"/>
      <point x="92" y="686" type="line"/>
      <point x="92" y="0" type="line"/>
      <point x="181" y="0" type="line"/>
      <point x="181" y="571" type="line"/>
      <point x="186" y="571" type="line"/>
      <point x="422" y="0" type="line"/>
      <point x="505" y="0" type="line"/>
      <point x="742" y="571" type="line"/>
      <point x="748" y="571" type="line"/>
      <point x="748" y="0" type="line"/>
      <point x="846" y="0" type="line"/>
      <point x="846" y="686" type="line"/>
    </contour>
  </outline>
</glyph>
<glyph name="P" format="1">
  <advance width="624"/>
  <unicode hex="0050"/>
  <outline>
    <contour>
      <point x="92" y="686" type="line"/>
      <point x="92" y="0" type="line"/>
      <point x="190" y="0" type="line"/>
      <point x="190" y="286" type="line"/>
      <point x="388" y="286" type="line" smooth="yes"/>
      <point x="506" y="286"/>
      <point x="593" y="370"/>
      <point x="593" y="486" type="curve" smooth="yes"/>
      <point x="593" y="602"/>
      <point x="506" y="686"/>
      <point x="388" y="686" type="curve" smooth="yes"/>
    </contour>
    <contour>
      <point x="441" y="597"/>
      <point x="495" y="549"/>
      <point x="495" y="486" type="curve" smooth="yes"/>
      <point x="495" y="423"/>
      <point x="440" y="375"/>
      <point x="379" y="375" type="curve" smooth="yes"/>
      <point x="190" y="375" type="line"/>
      <point x="190" y="597" type="line"/>
      <point x="379" y="597" type="line" smooth="yes"/>
    </contour>
  </outline>
</glyph>
<glyph name="R" format="1">
  <advance width="670"/>
  <unicode hex="0052"/>
  <outline>
    <contour>
      <point x="92" y="686" type="line"/>
      <point x="92" y="0" type="line"/>
      <point x="190" y="0" type="line"/>
      <point x="190" y="302" type="line"/>
      <point x="364" y="302" type="line" smooth="yes"/>
      <point x="427" y="302"/>
      <point x="481" y="243"/>
      <point x="481" y="130" type="curve" smooth="yes"/>
      <point x="481" y="16"/>
      <point x="528" y="-6"/>
      <point x="583" y="-6" type="curve" smooth="yes"/>
      <point x="599" y="-6"/>
      <point x="615" y="-3"/>
      <point x="630" y="3" type="curve"/>
      <point x="630" y="31" type="line"/>
      <point x="598" y="42"/>
      <point x="579" y="56"/>
      <point x="579" y="170" type="curve" smooth="yes"/>
      <point x="579" y="261"/>
      <point x="530" y="325"/>
      <point x="469" y="349" type="curve"/>
      <point x="469" y="354" type="line"/>
      <point x="535" y="367"/>
      <point x="592" y="433"/>
      <point x="592" y="525" type="curve" smooth="yes"/>
      <point x="592" y="628"/>
      <point x="501" y="686"/>
      <point x="384" y="686" type="curve" smooth="yes"/>
    </contour>
    <contour>
      <point x="452" y="597"/>
      <point x="494" y="553"/>
      <point x="494" y="496" type="curve" smooth="yes"/>
      <point x="494" y="492" type="line" smooth="yes"/>
      <point x="494" y="433"/>
      <point x="441" y="391"/>
      <point x="385" y="391" type="curve" smooth="yes"/>
      <point x="190" y="391" type="line"/>
      <point x="190" y="597" type="line"/>
      <point x="385" y="597" type="line" smooth="yes"/>
    </contour>
    <contour>
      <point x="335" y="686" type="move" name="top"/>
    </contour>
    <contour>
      <point x="335" y="0" type="move" name="bottom"/>
    </contour>
  </outline>
</glyph>
<glyph name="T" format="1">
  <advance width="578"/>
  <unicode hex="0054"/>
  <outline>
    <contour>
      <point x="25" y="686" type="line"/>
      <point x="25" y="597" type="line"/>
      <point x="240" y="597" type="line"/>
      <point x="240" y="0" type="line"/>
      <point x="338" y="0" type="line"/>
      <point x="338" y="597" type="line"/>
      <point x="553" y="597" type="line"/>
      <point x="553" y="686" type="line"/>
    </contour>
    <contour>
      <point x="289" y="343" type="move" name="center"/>
    </contour>
    <contour>
      <point x="289" y="0" type="move" name="bottom"/>
    </contour>
    <contour>
      <point x="289" y="686" type="move" name="top"/>
    </contour>
  </outline>
</glyph>
<glyph name="U" format="1">
  <advance width="680"/>
  <unicode hex="0055"/>
  <outline>
    <contour>
      <point x="496" y="686" type="line"/>
      <point x="496" y="221" type="line" smooth="yes"/>
      <point x="496" y="137"/>
      <point x="437" y="79"/>
      <point x="342" y="79" type="curve" smooth="yes"/>
      <point x="251" y="79"/>
      <point x="184" y="135"/>
      <point x="184" y="221" type="curve" smooth="yes"/>
      <point x="184" y="686" type="line"/>
      <point x="86" y="686" type="line"/>
      <point x="86" y="219" type="line" smooth="yes"/>
      <point x="86" y="79"/>
      <point x="185" y="-10"/>
      <point x="333" y="-10" type="curve" smooth="yes"/>
      <point x="346" y="-10" type="line" smooth="yes"/>
      <point x="496" y="-10"/>
      <point x="594" y="81"/>
      <point x="594" y="219" type="curve" smooth="yes"/>
      <point x="594" y="686" type="line"/>
    </contour>
    <contour>
      <point x="432" y="10" type="move" name="ogonek"/>
    </contour>
    <contour>
      <point x="340" y="686" type="move" name="top"/>
    </contour>
  </outline>
</glyph>
<glyph name="V" format="1">
  <advance width="603"/>
  <unicode hex="0056"/>
  <outline>
    <contour>
      <point x="503" y="686" type="line"/>
      <point x="309" y="133" type="line"/>
      <point x="303" y="133" type="line"/>
      <point x="110" y="686" type="line"/>
      <point x="5" y="686" type="line"/>
      <point x="249" y="0" type="line"/>
      <point x="354" y="0" type="line"/>
      <point x="598" y="686" type="line"/>
    </contour>
  </outline>
</glyph>
<glyph name="W" format="1">
  <advance width="916"/>
  <unicode hex="0057"/>
  <outline>
    <contour>
      <point x="808" y="686" type="line"/>
      <point x="662" y="169" type="line"/>
      <point x="656" y="169" type="line"/>
      <point x="511" y="686" type="line"/>
      <point x="416" y="686" type="line"/>
      <point x="270" y="169" type="line"/>
      <point x="264" y="169" type="line"/>
      <point x="119" y="686" type="line"/>
      <point x="14" y="686" type="line"/>
      <point x="210" y="0" type="line"/>
      <point x="310" y="0" type="line"/>
      <point x="455" y="496" type="line"/>
      <point x="462" y="496" type="line"/>
      <point x="602" y="0" type="line"/>
      <point x="702" y="0" type="line"/>
      <point x="903" y="686" type="line"/>
    </contour>
    <contour>
      <point x="458" y="686" type="move" name="top"/>
    </contour>
  </outline>
</glyph>
<glyph name="X" format="1">
  <advance width="631"/>
  <unicode hex="0058"/>
  <outline>
    <contour>
      <point x="490" y="685" type="line"/>
      <point x="476" y="665" type="line" smooth="yes"/>
      <point x="449" y="627"/>
      <point x="388" y="538"/>
      <point x="318" y="440" type="curve"/>
      <point x="150" y="685" type="line"/>
      <point x="32" y="685" type="line"/>
      <point x="259" y="355" type="line"/>
      <point x="9" y="0" type="line"/>
      <point x="118" y="0" type="line"/>
      <point x="313" y="276" type="line"/>
      <point x="503" y="0" type="line"/>
      <point x="621" y="0" type="line"/>
      <point x="372" y="361" type="line"/>
      <point x="580" y="658" type="line"/>
      <point x="599" y="685" type="line"/>
    </contour>
  </outline>
</glyph>
<glyph name="bracketleft" format="1">
  <advance width="293"/>
  <unicode hex="005B"/>
  <outline>
    <contour>
      <point x="85" y="686" type="line"/>
      <point x="85" y="-161" type="line"/>
      <point x="254" y="-161" type="line"/>
      <point x="254" y="-106" type="line"/>
      <point x="166" y="-106" type="line"/>
      <point x="166" y="631" type="line"/>
      <point x="254" y="631" type="line"/>
      <point x="254" y="686" type="line"/>
    </contour>
  </outline>
</glyph>
<glyph name="grave" format="1">
  <advance width="333"/>
  <unicode hex="0060"/>
  <outline>
    <contour>
      <point x="69" y="720" type="line"/>
      <point x="68" y="717" type="line"/>
      <point x="183" y="575" type="line"/>
      <point x="253" y="575" type="line"/>
      <point x="158" y="720" type="line"/>
    </contour>
    <contour>
      <point x="201" y="511" type="move" name="_top"/>
    </contour>
  </outline>
</glyph>
<glyph name="b" format="1">
  <advance width="583"/>
  <unicode hex="0062"/>
  <outline>
    <contour>
      <point x="83" y="720" type="line"/>
      <point x="83" y="0" type="line"/>
      <point x="119" y="0" type="line"/>
      <point x="152" y="81" type="line"/>
      <point x="191" y="20"/>
      <point x="248" y="-10"/>
      <point x="324" y="-10" type="curve" smooth="yes"/>
      <point x="452" y="-10"/>
      <point x="531" y="90"/>
      <point x="531" y="256" type="curve" smooth="yes"/>
      <point x="531" y="267" type="line" smooth="yes"/>
      <point x="531" y="420"/>
      <point x="457" y="521"/>
      <point x="325" y="521" type="curve" smooth="yes"/>
      <point x="261" y="521"/>
      <point x="206" y="487"/>
      <point x="177" y="446" type="curve"/>
      <point x="177" y="720" type="line"/>
    </contour>
    <contour>
      <point x="392" y="446"/>
      <point x="437" y="387"/>
      <point x="437" y="255" type="curve" smooth="yes"/>
      <point x="437" y="128"/>
      <point x="393" y="65"/>
      <point x="306" y="65" type="curve" smooth="yes"/>
      <point x="219" y="65"/>
      <point x="176" y="123"/>
      <point x="176" y="255" type="curve" smooth="yes"/>
      <point x="176" y="385"/>
      <point x="217" y="446"/>
      <point x="306" y="446" type="curve" smooth="yes"/>
    </contour>
  </outline>
</glyph>
<glyph name="c" format="1">
  <advance width="544"/>
  <unicode hex="0063"/>
  <outline>
    <contour>
      <point x="275" y="521" type="line" smooth="yes"/>
      <point x="141" y="521"/>
      <point x="51" y="420"/>
      <point x="51" y="267" type="curve" smooth="yes"/>
      <point x="51" y="243" type="line" smooth="yes"/>
      <point x="51" y="91"/>
      <point x="138" y="-10"/>
      <point x="276" y="-10" type="curve" smooth="yes"/>
      <point x="284" y="-10" type="line" smooth="yes"/>
      <point x="411" y="-10"/>
      <point x="495" y="71"/>
      <point x="495" y="200" type="curve"/>
      <point x="405" y="200" type="line"/>
      <point x="405" y="121"/>
      <point x="367" y="65"/>
      <point x="283" y="65" type="curve" smooth="yes"/>
      <point x="198" y="65"/>
      <point x="145" y="118"/>
      <point x="145" y="237" type="curve" smooth="yes"/>
      <point x="145" y="291" type="line" smooth="yes"/>
      <point x="145" y="388"/>
      <point x="198" y="446"/>
      <point x="280" y="446" type="curve" smooth="yes"/>
      <point x="361" y="446"/>
      <point x="402" y="390"/>
      <point x="402" y="310" type="curve"/>
      <point x="495" y="310" type="line"/>
      <point x="495" y="437"/>
      <point x="406" y="521"/>
      <point x="283" y="521" type="curve" smooth="yes"/>
    </contour>
    <contour>
      <point x="272" y="511" type="move" name="top"/>
    </contour>
    <contour>
      <point x="272" y="0" type="move" name="bottom"/>
    </contour>
  </outline>
</glyph>
<glyph name="i" format="1">
  <advance width="260"/>
  <unicode hex="0069"/>
  <outline>
    <contour>
      <point x="83" y="511" type="line"/>
      <point x="83" y="0" type="line"/>
      <point x="177" y="0" type="line"/>
      <point x="177" y="511" type="line"/>
    </contour>
    <contour>
      <point x="81" y="720" type="line"/>
      <point x="81" y="633" type="line"/>
      <point x="179" y="633" type="line"/>
      <point x="179" y="720" type="line"/>
    </contour>
  </outline>
</glyph>
<glyph name="k" format="1">
  <advance width="535"/>
  <unicode hex="006B"/>
  <outline>
    <contour>
      <point x="83" y="720" type="line"/>
      <point x="83" y="0" type="line"/>
      <point x="177" y="0" type="line"/>
      <point x="177" y="110" type="line"/>
      <point x="254" y="190" type="line"/>
      <point x="407" y="0" type="line"/>
      <point x="521" y="0" type="line"/>
      <point x="311" y="263" type="line"/>
      <point x="508" y="511" type="line"/>
      <point x="405" y="511" type="line"/>
      <point x="177" y="226" type="line"/>
      <point x="177" y="720" type="line"/>
    </contour>
    <contour>
      <point x="268" y="0" type="move" name="bottom"/>
    </contour>
  </outline>
</glyph>
<glyph name="s" format="1">
  <advance width="534"/>
  <unicode hex="0073"/>
  <outline>
    <contour>
      <point x="269" y="521" type="line" smooth="yes"/>
      <point x="140" y="521"/>
      <point x="60" y="464"/>
      <point x="60" y="369" type="curve" smooth="yes"/>
      <point x="60" y="165"/>
      <point x="391" y="268"/>
      <point x="391" y="136" type="curve" smooth="yes"/>
      <point x="391" y="89"/>
      <point x="332" y="65"/>
      <point x="282" y="65" type="curve" smooth="yes"/>
      <point x="186" y="65"/>
      <point x="139" y="93"/>
      <point x="139" y="150" type="curve" smooth="yes"/>
      <point x="139" y="160" type="line"/>
      <point x="46" y="160" type="line"/>
      <point x="46" y="138" type="line" smooth="yes"/>
      <point x="45" y="54"/>
      <point x="124" y="-10"/>
      <point x="253" y="-10" type="curve" smooth="yes"/>
      <point x="268" y="-10" type="line" smooth="yes"/>
      <point x="406" y="-10"/>
      <point x="485" y="43"/>
      <point x="485" y="154" type="curve" smooth="yes"/>
      <point x="485" y="347"/>
      <point x="154" y="271"/>
      <point x="154" y="379" type="curve" smooth="yes"/>
      <point x="154" y="423"/>
      <point x="191" y="446"/>
      <point x="266" y="446" type="curve" smooth="yes"/>
      <point x="341" y="446"/>
      <point x="379" y="422"/>
      <point x="379" y="373" type="curve" smooth="yes"/>
      <point x="379" y="364" type="line"/>
      <point x="472" y="364" type="line"/>
      <point x="473" y="382" type="line"/>
      <point x="473" y="461"/>
      <point x="394" y="521"/>
      <point x="278" y="521" type="curve" smooth="yes"/>
    </contour>
    <contour>
      <point x="267" y="511" type="move" name="top"/>
    </contour>
    <contour>
      <point x="267" y="0" type="move" name="bottom"/>
    </contour>
  </outline>
</glyph>
<glyph name="u" format="1">
  <advance width="618"/>
  <unicode hex="0075"/>
  <outline>
    <contour>
      <point x="416" y="511" type="line"/>
      <point x="416" y="207" type="line" smooth="yes"/>
      <point x="416" y="127"/>
      <point x="351" y="65"/>
      <point x="280" y="65" type="curve" smooth="yes"/>
      <point x="216" y="65"/>
      <point x="172" y="97"/>
      <point x="172" y="184" type="curve" smooth="yes"/>
      <point x="172" y="511" type="line"/>
      <point x="78" y="511" type="line"/>
      <point x="78" y="167" type="line" smooth="yes"/>
      <point x="78" y="48"/>
      <point x="156" y="-10"/>
      <point x="254" y="-10" type="curve" smooth="yes"/>
      <point x="329" y="-10"/>
      <point x="386" y="23"/>
      <point x="421" y="74" type="curve"/>
      <point x="423" y="27"/>
      <point x="442" y="-10"/>
      <point x="520" y="-10" type="curve" smooth="yes"/>
      <point x="542" y="-10"/>
      <point x="563" y="-3"/>
      <point x="583" y="10" type="curve"/>
      <point x="583" y="79" type="line"/>
      <point x="568" y="70"/>
      <point x="553" y="65"/>
      <point x="538" y="65" type="curve" smooth="yes"/>
      <point x="523" y="65"/>
      <point x="510" y="75"/>
      <point x="510" y="100" type="curve" smooth="yes"/>
      <point x="510" y="511" type="line"/>
    </contour>
    <contour>
      <point x="556" y="10" type="move" name="ogonek"/>
    </contour>
    <contour>
      <point x="309" y="511" type="move" name="top"/>
    </contour>
  </outline>
</glyph>
<glyph name="v" format="1">
  <advance width="512"/>
  <unicode hex="0076"/>
  <outline>
    <contour>
      <point x="408" y="511" type="line"/>
      <point x="262" y="120" type="line"/>
      <point x="258" y="120" type="line"/>
      <point x="112" y="511" type="line"/>
      <point x="12" y="511" type="line"/>
      <point x="206" y="0" type="line"/>
      <point x="306" y="0" type="line"/>
      <point x="500" y="511" type="line"/>
    </contour>
  </outline>
</glyph>
<glyph name="x" format="1">
  <advance width="519"/>
  <unicode hex="0078"/>
  <outline>
    <contour>
      <point x="389" y="511" type="line"/>
      <point x="263" y="337" type="line"/>
      <point x="140" y="511" type="line"/>
      <point x="28" y="511" type="line"/>
      <point x="206" y="259" type="line"/>
      <point x="18" y="0" type="line"/>
      <point x="121" y="0" type="line"/>
      <point x="256" y="187" type="line"/>
      <point x="389" y="0" type="line"/>
      <point x="501" y="0" type="line"/>
      <point x="313" y="265" type="line"/>
      <point x="492" y="511" type="line"/>
    </contour>
  </outline>
</glyph>
<glyph name="braceright" format="1">
  <advance width="315"/>
  <unicode hex="007D"/>
  <outline>
    <contour>
      <point x="40" y="636" type="line"/>
      <point x="80" y="636"/>
      <point x="119" y="629"/>
      <point x="119" y="552" type="curve" smooth="yes"/>
      <point x="119" y="504"/>
      <point x="123" y="436"/>
      <point x="126" y="371" type="curve" smooth="yes"/>
      <point x="129" y="306"/>
      <point x="150" y="268"/>
      <point x="215" y="268" type="curve"/>
      <point x="215" y="259" type="line"/>
      <point x="150" y="259"/>
      <point x="129" y="221"/>
      <point x="126" y="156" type="curve" smooth="yes"/>
      <point x="123" y="91"/>
      <point x="119" y="25"/>
      <point x="119" y="-32" type="curve" smooth="yes"/>
      <point x="119" y="-75"/>
      <point x="100" y="-109"/>
      <point x="40" y="-109" type="curve"/>
      <point x="40" y="-159" type="line"/>
      <point x="144" y="-159"/>
      <point x="198" y="-123"/>
      <point x="198" y="-19" type="curve" smooth="yes"/>
      <point x="198" y="167" type="line" smooth="yes"/>
      <point x="198" y="205"/>
      <point x="231" y="224"/>
      <point x="275" y="224" type="curve"/>
      <point x="275" y="303" type="line"/>
      <point x="225" y="303"/>
      <point x="198" y="325"/>
      <point x="198" y="360" type="curve" smooth="yes"/>
      <point x="198" y="546" type="line" smooth="yes"/>
      <point x="198" y="644"/>
      <point x="151" y="686"/>
      <point x="40" y="686" type="curve"/>
    </contour>
  </outline>
</glyph>
<glyph name="asciitilde" format="1">
  <advance width="689"/>
  <unicode hex="007E"/>
  <outline>
    <contour>
      <point x="586" y="337"/>
      <point x="519" y="308"/>
      <point x="466" y="308" type="curve" smooth="yes"/>
      <point x="376" y="308"/>
      <point x="312" y="374"/>
      <point x="227" y="374" type="curve" smooth="yes"/>
      <point x="177" y="374"/>
      <point x="111" y="346"/>
      <point x="64" y="296" type="curve"/>
      <point x="64" y="211" type="line"/>
      <point x="111" y="262"/>
      <point x="177" y="289"/>
      <point x="226" y="289" type="curve" smooth="yes"/>
      <point x="317" y="289"/>
      <point x="378" y="223"/>
      <point x="467" y="223" type="curve" smooth="yes"/>
      <point x="529" y="223"/>
      <point x="592" y="261"/>
      <point x="628" y="301" type="curve"/>
      <point x="628" y="386" type="line"/>
    </contour>
  </outline>
</glyph>
<glyph name="cent" format="1">
  <advance width="527"/>
  <unicode hex="00A2"/>
  <outline>
    <contour>
      <point x="241" y="693" type="line"/>
      <point x="251" y="608" type="line"/>
      <point x="127" y="600"/>
      <point x="48" y="500"/>
      <point x="48" y="355" type="curve" smooth="yes"/>
      <point x="48" y="331" type="line" smooth="yes"/>
      <point x="48" y="183"/>
      <point x="129" y="87"/>
      <point x="251" y="79" type="curve"/>
      <point x="241" y="-7" type="line"/>
      <point x="314" y="-7" type="line"/>
      <point x="303" y="79" type="line"/>
      <point x="417" y="87"/>
      <point x="492" y="168"/>
      <point x="492" y="288" type="curve"/>
      <point x="402" y="288" type="line"/>
      <point x="402" y="209"/>
      <point x="364" y="153"/>
      <point x="280" y="153" type="curve" smooth="yes"/>
      <point x="195" y="153"/>
      <point x="142" y="206"/>
      <point x="142" y="325" type="curve" smooth="yes"/>
      <point x="142" y="379" type="line" smooth="yes"/>
      <point x="142" y="476"/>
      <point x="195" y="534"/>
      <point x="277" y="534" type="curve" smooth="yes"/>
      <point x="357" y="534"/>
      <point x="399" y="479"/>
      <point x="399" y="398" type="curve"/>
      <point x="492" y="398" type="line"/>
      <point x="492" y="524"/>
      <point x="413" y="597"/>
      <point x="303" y="608" type="curve"/>
      <point x="314" y="693" type="line"/>
    </contour>
  </outline>
</glyph>
<glyph name="ordfeminine" format="1">
  <advance width="415"/>
  <unicode hex="00AA"/>
  <outline>
    <contour>
      <point x="193" y="696" type="line" smooth="yes"/>
      <point x="118" y="696"/>
      <point x="65" y="661"/>
      <point x="65" y="608" type="curve" smooth="yes"/>
      <point x="65" y="604"/>
      <point x="66" y="599"/>
      <point x="67" y="594" type="curve"/>
      <point x="122" y="594" type="line"/>
      <point x="122" y="602" type="line" smooth="yes"/>
      <point x="122" y="633"/>
      <point x="150" y="650"/>
      <point x="192" y="650" type="curve" smooth="yes"/>
      <point x="239" y="650"/>
      <point x="263" y="631"/>
      <point x="263" y="594" type="curve" smooth="yes"/>
      <point x="263" y="566" type="line"/>
      <point x="109" y="566"/>
      <point x="55" y="541"/>
      <point x="55" y="462" type="curve" smooth="yes"/>
      <point x="55" y="403"/>
      <point x="89" y="373"/>
      <point x="157" y="373" type="curve" smooth="yes"/>
      <point x="204" y="373"/>
      <point x="240" y="392"/>
      <point x="265" y="429" type="curve"/>
      <point x="268" y="392"/>
      <point x="286" y="373"/>
      <point x="319" y="373" type="curve" smooth="yes"/>
      <point x="334" y="373"/>
      <point x="349" y="377"/>
      <point x="365" y="385" type="curve"/>
      <point x="365" y="427" type="line"/>
      <point x="352" y="422"/>
      <point x="343" y="419"/>
      <point x="338" y="419" type="curve" smooth="yes"/>
      <point x="329" y="419"/>
      <point x="320" y="425"/>
      <point x="320" y="440" type="curve" smooth="yes"/>
      <point x="320" y="601" type="line" smooth="yes"/>
      <point x="320" y="664"/>
      <point x="279" y="696"/>
      <point x="198" y="696" type="curve" smooth="yes"/>
    </contour>
    <contour>
      <point x="263" y="509" type="line" smooth="yes"/>
      <point x="263" y="452"/>
      <point x="220" y="419"/>
      <point x="177" y="419" type="curve" smooth="yes"/>
      <point x="133" y="419"/>
      <point x="112" y="430"/>
      <point x="112" y="465" type="curve" smooth="yes"/>
      <point x="112" y="512"/>
      <point x="168" y="522"/>
      <point x="263" y="522" type="curve"/>
    </contour>
  </outline>
</glyph>
<glyph name="acute" format="1">
  <advance width="333"/>
  <unicode hex="00B4"/>
  <outline>
    <contour>
      <point x="162" y="720" type="line"/>
      <point x="68" y="575" type="line"/>
      <point x="137" y="575" type="line"/>
      <point x="253" y="717" type="line"/>
      <point x="252" y="720" type="line"/>
    </contour>
    <contour>
      <point x="121" y="511" type="move" name="_top"/>
    </contour>
  </outline>
</glyph>
<glyph name="periodcentered" format="1">
  <advance width="239"/>
  <unicode hex="00B7"/>
  <outline>
    <contour>
      <point x="69" y="344" type="line"/>
      <point x="69" y="232" type="line"/>
      <point x="170" y="232" type="line"/>
      <point x="170" y="344" type="line"/>
    </contour>
  </outline>
</glyph>
<glyph name="onesuperior" format="1">
  <advance width="334"/>
  <unicode hex="00B9"/>
  <outline>
    <contour>
      <point x="182" y="796" type="line"/>
      <point x="131" y="774"/>
      <point x="87" y="762"/>
      <point x="50" y="759" type="curve"/>
      <point x="50" y="724" type="line"/>
      <point x="149" y="724" type="line"/>
      <point x="149" y="471" type="line"/>
      <point x="50" y="471" type="line"/>
      <point x="50" y="422" type="line"/>
      <point x="284" y="422" type="line"/>
      <point x="284" y="471" type="line"/>
      <point x="203" y="471" type="line"/>
      <point x="203" y="796" type="line"/>
    </contour>
  </outline>
</glyph>
<glyph name="ordmasculine" format="1">
  <advance width="392"/>
  <unicode hex="00BA"/>
  <outline>
    <contour>
      <point x="107" y="696"/>
      <point x="53" y="640"/>
      <point x="53" y="546" type="curve" smooth="yes"/>
      <point x="53" y="523" type="line" smooth="yes"/>
      <point x="53" y="427"/>
      <point x="110" y="373"/>
      <point x="196" y="373" type="curve" smooth="yes"/>
      <point x="282" y="373"/>
      <point x="339" y="427"/>
      <point x="339" y="523" type="curve" smooth="yes"/>
      <point x="339" y="546" type="line" smooth="yes"/>
      <point x="339" y="640"/>
      <point x="285" y="696"/>
      <point x="196" y="696" type="curve" smooth="yes"/>
    </contour>
    <contour>
      <point x="243" y="650"/>
      <point x="282" y="619"/>
      <point x="282" y="540" type="curve" smooth="yes"/>
      <point x="282" y="529" type="line" smooth="yes"/>
      <point x="282" y="450"/>
      <point x="243" y="419"/>
      <point x="196" y="419" type="curve" smooth="yes"/>
      <point x="149" y="419"/>
      <point x="110" y="450"/>
      <point x="110" y="529" type="curve" smooth="yes"/>
      <point x="110" y="540" type="line" smooth="yes"/>
      <point x="110" y="619"/>
      <point x="149" y="650"/>
      <point x="196" y="650" type="curve" smooth="yes"/>
    </contour>
  </outline>
</glyph>
<glyph name="guillemotright" format="1">
  <advance width="460"/>
  <unicode hex="00BB"/>
  <outline>
    <contour>
      <point x="56" y="511" type="line"/>
      <point x="150" y="337" type="line"/>
      <point x="56" y="163" type="line"/>
      <point x="107" y="163" type="line"/>
      <point x="230" y="337" type="line"/>
      <point x="107" y="511" type="line"/>
    </contour>
    <contour>
      <point x="239" y="511" type="line"/>
      <point x="332" y="337" type="line"/>
      <point x="239" y="163" type="line"/>
      <point x="289" y="163" type="line"/>
      <point x="411" y="337" type="line"/>
      <point x="289" y="511" type="line"/>
    </contour>
  </outline>
</glyph>
<glyph name="onequarter" format="1">
  <advance width="702"/>
  <unicode hex="00BC"/>
  <outline>
    <contour>
      <point x="563" y="686" type="line"/>
      <point x="143" y="0" type="line"/>
      <point x="198" y="0" type="line"/>
      <point x="615" y="686" type="line"/>
    </contour>
    <contour>
      <point x="168" y="684" type="line"/>
      <point x="117" y="662"/>
      <point x="73" y="650"/>
      <point x="36" y="647" type="curve"/>
      <point x="36" y="612" type="line"/>
      <point x="135" y="612" type="line"/>
      <point x="135" y="359" type="line"/>
      <point x="36" y="359" type="line"/>
      <point x="36" y="310" type="line"/>
      <point x="270" y="310" type="line"/>
      <point x="270" y="359" type="line"/>
      <point x="189" y="359" type="line"/>
      <point x="189" y="684" type="line"/>
    </contour>
    <contour>
      <point x="517" y="374" type="line"/>
      <point x="490" y="295"/>
      <point x="452" y="217"/>
      <point x="402" y="141" type="curve"/>
      <point x="402" y="91" type="line"/>
      <point x="575" y="91" type="line"/>
      <point x="575" y="0" type="line"/>
      <point x="629" y="0" type="line"/>
      <point x="629" y="91" type="line"/>
      <point x="675" y="91" type="line"/>
      <point x="675" y="140" type="line"/>
      <point x="629" y="140" type="line"/>
      <point x="629" y="319" type="line"/>
      <point x="604" y="319" type="line"/>
      <point x="597" y="294"/>
      <point x="587" y="270"/>
      <point x="575" y="245" type="curve"/>
      <point x="575" y="140" type="line"/>
      <point x="452" y="140" type="line"/>
      <point x="473" y="163"/>
      <point x="545" y="269"/>
      <point x="572" y="374" type="curve"/>
    </contour>
  </outline>
</glyph>
<glyph name="threequarters" format="1">
  <advance width="698"/>
  <unicode hex="00BE"/>
  <outline>
    <contour>
      <point x="563" y="686" type="line"/>
      <point x="143" y="0" type="line"/>
      <point x="198" y="0" type="line"/>
      <point x="615" y="686" type="line"/>
    </contour>
    <contour>
      <point x="164" y="686" type="line" smooth="yes"/>
      <point x="92" y="686"/>
      <point x="40" y="647"/>
      <point x="40" y="584" type="curve" smooth="yes"/>
      <point x="40" y="574" type="line"/>
      <point x="94" y="574" type="line"/>
      <point x="94" y="579" type="line" smooth="yes"/>
      <point x="94" y="618"/>
      <point x="125" y="637"/>
      <point x="165" y="637" type="curve" smooth="yes"/>
      <point x="204" y="637"/>
      <point x="237" y="621"/>
      <point x="237" y="581" type="curve" smooth="yes"/>
      <point x="237" y="540"/>
      <point x="203" y="520"/>
      <point x="162" y="520" type="curve" smooth="yes"/>
      <point x="120" y="520" type="line"/>
      <point x="120" y="471" type="line"/>
      <point x="161" y="471" type="line" smooth="yes"/>
      <point x="205" y="471"/>
      <point x="246" y="456"/>
      <point x="246" y="412" type="curve" smooth="yes"/>
      <point x="246" y="367"/>
      <point x="214" y="347"/>
      <point x="163" y="347" type="curve" smooth="yes"/>
      <point x="111" y="347"/>
      <point x="85" y="367"/>
      <point x="85" y="408" type="curve" smooth="yes"/>
      <point x="85" y="414" type="line"/>
      <point x="31" y="414" type="line"/>
      <point x="31" y="410" type="line" smooth="yes"/>
      <point x="31" y="342"/>
      <point x="78" y="298"/>
      <point x="162" y="298" type="curve" smooth="yes"/>
      <point x="169" y="298" type="line" smooth="yes"/>
      <point x="245" y="298"/>
      <point x="300" y="340"/>
      <point x="300" y="405" type="curve" smooth="yes"/>
      <point x="300" y="451"/>
      <point x="277" y="482"/>
      <point x="231" y="499" type="curve"/>
      <point x="271" y="518"/>
      <point x="291" y="546"/>
      <point x="291" y="584" type="curve" smooth="yes"/>
      <point x="291" y="647"/>
      <point x="238" y="686"/>
      <point x="169" y="686" type="curve" smooth="yes"/>
    </contour>
    <contour>
      <point x="512" y="374" type="line"/>
      <point x="485" y="295"/>
      <point x="447" y="217"/>
      <point x="397" y="141" type="curve"/>
      <point x="397" y="91" type="line"/>
      <point x="570" y="91" type="line"/>
      <point x="570" y="0" type="line"/>
      <point x="624" y="0" type="line"/>
      <point x="624" y="91" type="line"/>
      <point x="670" y="91" type="line"/>
      <point x="670" y="140" type="line"/>
      <point x="624" y="140" type="line"/>
      <point x="624" y="319" type="line"/>
      <point x="599" y="319" type="line"/>
      <point x="592" y="294"/>
      <point x="582" y="270"/>
      <point x="570" y="245" type="curve"/>
      <point x="570" y="140" type="line"/>
      <point x="447" y="140" type="line"/>
      <point x="468" y="163"/>
      <point x="540" y="269"/>
      <point x="567" y="374" type="curve"/>
    </contour>
  </outline>
</glyph>
<glyph name="Atilde" format="1">
  <advance width="652"/>
  <unicode hex="00C3"/>
  <outline>
    <contour>
      <point x="272" y="686" type="line"/>
      <point x="4" y="0" type="line"/>
      <point x="99" y="0" type="line"/>
      <point x="156" y="149" type="line"/>
      <point x="484" y="149" type="line"/>
      <point x="542" y="0" type="line"/>
      <point x="648" y="0" type="line"/>
      <point x="380" y="686" type="line"/>
    </contour>
    <contour>
      <point x="450" y="238" type="line"/>
      <point x="191" y="238" type="line"/>
      <point x="318" y="568" type="line"/>
      <point x="324" y="568" type="line"/>
    </contour>
    <contour>
      <point x="467" y="854" type="line"/>
      <point x="460" y="831"/>
      <point x="441" y="819"/>
      <point x="412" y="819" type="curve" smooth="yes"/>
      <point x="395" y="819"/>
      <point x="369" y="825"/>
      <point x="332" y="836" type="curve" smooth="yes"/>
      <point x="304" y="845"/>
      <point x="277" y="854"/>
      <point x="242" y="854" type="curve" smooth="yes"/>
      <point x="170" y="854"/>
      <point x="131" y="802"/>
      <point x="131" y="750" type="curve"/>
      <point x="181" y="750" type="line"/>
      <point x="188" y="773"/>
      <point x="206" y="784"/>
      <point x="236" y="784" type="curve" smooth="yes"/>
      <point x="265" y="784"/>
      <point x="280" y="777"/>
      <point x="335" y="761" type="curve" smooth="yes"/>
      <point x="361" y="753"/>
      <point x="385" y="750"/>
      <point x="405" y="750" type="curve" smooth="yes"/>
      <point x="472" y="750"/>
      <point x="517" y="795"/>
      <point x="517" y="854" type="curve"/>
    </contour>
  </outline>
</glyph>
<glyph name="AE" format="1">
  <advance width="983"/>
  <unicode hex="00C6"/>
  <outline>
    <contour>
      <point x="371" y="686" type="line"/>
      <point x="7" y="0" type="line"/>
      <point x="101" y="0" type="line"/>
      <point x="179" y="149" type="line"/>
      <point x="507" y="149" type="line"/>
      <point x="544" y="0" type="line"/>
      <point x="939" y="0" type="line"/>
      <point x="925" y="89" type="line"/>
      <point x="627" y="89" type="line"/>
      <point x="573" y="306" type="line"/>
      <point x="887" y="306" type="line"/>
      <point x="887" y="395" type="line"/>
      <point x="551" y="395" type="line"/>
      <point x="501" y="597" type="line"/>
      <point x="919" y="597" type="line"/>
      <point x="932" y="686" type="line"/>
    </contour>
    <contour>
      <point x="486" y="238" type="line"/>
      <point x="227" y="238" type="line"/>
      <point x="400" y="568" type="line"/>
      <point x="406" y="568" type="line"/>
    </contour>
    <contour>
      <point x="492" y="686" type="move" name="top"/>
    </contour>
  </outline>
</glyph>
<glyph name="Eacute" format="1">
  <advance width="593"/>
  <unicode hex="00C9"/>
  <outline>
    <contour>
      <point x="92" y="686" type="line"/>
      <point x="92" y="0" type="line"/>
      <point x="549" y="0" type="line"/>
      <point x="535" y="89" type="line"/>
      <point x="190" y="89" type="line"/>
      <point x="190" y="306" type="line"/>
      <point x="497" y="306" type="line"/>
      <point x="497" y="395" type="line"/>
      <point x="190" y="395" type="line"/>
      <point x="190" y="597" type="line"/>
      <point x="529" y="597" type="line"/>
      <point x="542" y="686" type="line"/>
    </contour>
    <contour>
      <point x="378" y="895" type="line"/>
      <point x="284" y="750" type="line"/>
      <point x="353" y="750" type="line"/>
      <point x="469" y="892" type="line"/>
      <point x="468" y="895" type="line"/>
    </contour>
  </outline>
</glyph>
<glyph name="Igrave" format="1">
  <advance width="364"/>
  <unicode hex="00CC"/>
  <outline>
    <contour>
      <point x="53" y="686" type="line"/>
      <point x="53" y="597" type="line"/>
      <point x="133" y="597" type="line"/>
      <point x="133" y="89" type="line"/>
      <point x="53" y="89" type="line"/>
      <point x="53" y="0" type="line"/>
      <point x="311" y="0" type="line"/>
      <point x="311" y="89" type="line"/>
      <point x="231" y="89" type="line"/>
      <point x="231" y="597" type="line"/>
      <point x="311" y="597" type="line"/>
      <point x="311" y="686" type="line"/>
    </contour>
    <contour>
      <point x="33" y="895" type="line"/>
      <point x="32" y="892" type="line"/>
      <point x="147" y="750" type="line"/>
      <point x="217" y="750" type="line"/>
      <point x="122" y="895" type="line"/>
    </contour>
  </outline>
</glyph>
<glyph name="Eth" format="1">
  <advance width="681"/>
  <unicode hex="00D0"/>
  <outline>
    <contour>
      <point x="98" y="686" type="line"/>
      <point x="98" y="375" type="line"/>
      <point x="5" y="375" type="line"/>
      <point x="5" y="310" type="line"/>
      <point x="98" y="310" type="line"/>
      <point x="98" y="0" type="line"/>
      <point x="336" y="0" type="line" smooth="yes"/>
      <point x="509" y="0"/>
      <point x="620" y="119"/>
      <point x="620" y="308" type="curve" smooth="yes"/>
      <point x="620" y="378" type="line" smooth="yes"/>
      <point x="620" y="567"/>
      <point x="509" y="686"/>
      <point x="336" y="686" type="curve" smooth="yes"/>
    </contour>
    <contour>
      <point x="458" y="597"/>
      <point x="522" y="519"/>
      <point x="522" y="378" type="curve" smooth="yes"/>
      <point x="522" y="308" type="line" smooth="yes"/>
      <point x="522" y="162"/>
      <point x="453" y="89"/>
      <point x="336" y="89" type="curve" smooth="yes"/>
      <point x="196" y="89" type="line"/>
      <point x="196" y="310" type="line"/>
      <point x="341" y="310" type="line"/>
      <point x="341" y="375" type="line"/>
      <point x="196" y="375" type="line"/>
      <point x="196" y="597" type="line"/>
      <point x="336" y="597" type="line" smooth="yes"/>
    </contour>
  </outline>
</glyph>
<glyph name="Ograve" format="1">
  <advance width="690"/>
  <unicode hex="00D2"/>
  <outline>
    <contour>
      <point x="175" y="696"/>
      <point x="61" y="581"/>
      <point x="61" y="388" type="curve" smooth="yes"/>
      <point x="61" y="298" type="line" smooth="yes"/>
      <point x="61" y="105"/>
      <point x="175" y="-10"/>
      <point x="345" y="-10" type="curve" smooth="yes"/>
      <point x="515" y="-10"/>
      <point x="629" y="105"/>
      <point x="629" y="298" type="curve" smooth="yes"/>
      <point x="629" y="388" type="line" smooth="yes"/>
      <point x="629" y="581"/>
      <point x="515" y="696"/>
      <point x="345" y="696" type="curve" smooth="yes"/>
    </contour>
    <contour>
      <point x="467" y="607"/>
      <point x="531" y="530"/>
      <point x="531" y="388" type="curve" smooth="yes"/>
      <point x="531" y="298" type="line" smooth="yes"/>
      <point x="531" y="151"/>
      <point x="459" y="79"/>
      <point x="345" y="79" type="curve" smooth="yes"/>
      <point x="223" y="79"/>
      <point x="159" y="156"/>
      <point x="159" y="298" type="curve" smooth="yes"/>
      <point x="159" y="388" type="line" smooth="yes"/>
      <point x="159" y="533"/>
      <point x="229" y="607"/>
      <point x="345" y="607" type="curve" smooth="yes"/>
    </contour>
    <contour>
      <point x="199" y="895" type="line"/>
      <point x="198" y="892" type="line"/>
      <point x="313" y="750" type="line"/>
      <point x="383" y="750" type="line"/>
      <point x="288" y="895" type="line"/>
    </contour>
  </outline>
</glyph>
<glyph name="Ocircumflex" format="1">
  <advance width="690"/>
  <unicode hex="00D4"/>
  <outline>
    <contour>
      <point x="175" y="696"/>
      <point x="61" y="581"/>
      <point x="61" y="388" type="curve" smooth="yes"/>
      <point x="61" y="298" type="line" smooth="yes"/>
      <point x="61" y="105"/>
      <point x="175" y="-10"/>
      <point x="345" y="-10" type="curve" smooth="yes"/>
      <point x="515" y="-10"/>
      <point x="629" y="105"/>
      <point x="629" y="298" type="curve" smooth="yes"/>
      <point x="629" y="388" type="line" smooth="yes"/>
      <point x="629" y="581"/>
      <point x="515" y="696"/>
      <point x="345" y="696" type="curve" smooth="yes"/>
    </contour>
    <contour>
      <point x="467" y="607"/>
      <point x="531" y="530"/>
      <point x="531" y="388" type="curve" smooth="yes"/>
      <point x="531" y="298" type="line" smooth="yes"/>
      <point x="531" y="151"/>
      <point x="459" y="79"/>
      <point x="345" y="79" type="curve" smooth="yes"/>
      <point x="223" y="79"/>
      <point x="159" y="156"/>
      <point x="159" y="298" type="curve" smooth="yes"/>
      <point x="159" y="388" type="line" smooth="yes"/>
      <point x="159" y="533"/>
      <point x="229" y="607"/>
      <point x="345" y="607" type="curve" smooth="yes"/>
    </contour>
    <contour>
      <point x="304" y="895" type="line"/>
      <point x="168" y="750" type="line"/>
      <point x="248" y="750" type="line"/>
      <point x="343" y="839" type="line"/>
      <point x="437" y="750" type="line"/>
      <point x="517" y="750" type="line"/>
      <point x="382" y="895" type="line"/>
    </contour>
  </outline>
</glyph>
<glyph name="Otilde" format="1">
  <advance width="690"/>
  <unicode hex="00D5"/>
  <outline>
    <contour>
      <point x="175" y="696"/>
      <point x="61" y="581"/>
      <point x="61" y="388" type="curve" smooth="yes"/>
      <point x="61" y="298" type="line" smooth="yes"/>
      <point x="61" y="105"/>
      <point x="175" y="-10"/>
      <point x="345" y="-10" type="curve" smooth="yes"/>
      <point x="515" y="-10"/>
      <point x="629" y="105"/>
      <point x="629" y="298" type="curve" smooth="yes"/>
      <point x="629" y="388" type="line" smooth="yes"/>
      <point x="629" y="581"/>
      <point x="515" y="696"/>
      <point x="345" y="696" type="curve" smooth="yes"/>
    </contour>
    <contour>
      <point x="467" y="607"/>
      <point x="531" y="530"/>
      <point x="531" y="388" type="curve" smooth="yes"/>
      <point x="531" y="298" type="line" smooth="yes"/>
      <point x="531" y="151"/>
      <point x="459" y="79"/>
      <point x="345" y="79" type="curve" smooth="yes"/>
      <point x="223" y="79"/>
      <point x="159" y="156"/>
      <point x="159" y="298" type="curve" smooth="yes"/>
      <point x="159" y="388" type="line" smooth="yes"/>
      <point x="159" y="533"/>
      <point x="229" y="607"/>
      <point x="345" y="607" type="curve" smooth="yes"/>
    </contour>
    <contour>
      <point x="488" y="854" type="line"/>
      <point x="481" y="831"/>
      <point x="462" y="819"/>
      <point x="433" y="819" type="curve" smooth="yes"/>
      <point x="416" y="819"/>
      <point x="388" y="824"/>
      <point x="352" y="836" type="curve"/>
      <point x="324" y="844"/>
      <point x="298" y="854"/>
      <point x="263" y="854" type="curve" smooth="yes"/>
      <point x="192" y="854"/>
      <point x="152" y="804"/>
      <point x="152" y="750" type="curve"/>
      <point x="202" y="750" type="line"/>
      <point x="209" y="773"/>
      <point x="227" y="784"/>
      <point x="257" y="784" type="curve" smooth="yes"/>
      <point x="286" y="784"/>
      <point x="301" y="777"/>
      <point x="356" y="761" type="curve" smooth="yes"/>
      <point x="382" y="753"/>
      <point x="406" y="750"/>
      <point x="426" y="750" type="curve" smooth="yes"/>
      <point x="492" y="750"/>
      <point x="538" y="792"/>
      <point x="538" y="854" type="curve"/>
    </contour>
  </outline>
</glyph>
<glyph name="multiply" format="1">
  <advance width="615"/>
  <unicode hex="00D7"/>
  <outline>
    <contour>
      <point x="308" y="314" type="line"/>
      <point x="154" y="466" type="line"/>
      <point x="99" y="407" type="line"/>
      <point x="252" y="255" type="line"/>
      <point x="99" y="104" type="line"/>
      <point x="154" y="45" type="line"/>
      <point x="308" y="195" type="line"/>
      <point x="461" y="45" type="line"/>
      <point x="516" y="104" type="line"/>
      <point x="363" y="255" type="line"/>
      <point x="516" y="407" type="line"/>
      <point x="461" y="466" type="line"/>
    </contour>
  </outline>
</glyph>
<glyph name="Uacute" format="1">
  <advance width="680"/>
  <unicode hex="00DA"/>
  <outline>
    <contour>
      <point x="496" y="686" type="line"/>
      <point x="496" y="221" type="line" smooth="yes"/>
      <point x="496" y="137"/>
      <point x="437" y="79"/>
      <point x="342" y="79" type="curve" smooth="yes"/>
      <point x="251" y="79"/>
      <point x="184" y="135"/>
      <point x="184" y="221" type="curve" smooth="yes"/>
      <point x="184" y="686" type="line"/>
      <point x="86" y="686" type="line"/>
      <point x="86" y="219" type="line" smooth="yes"/>
      <point x="86" y="79"/>
      <point x="185" y="-10"/>
      <point x="333" y="-10" type="curve" smooth="yes"/>
      <point x="346" y="-10" type="line" smooth="yes"/>
      <point x="496" y="-10"/>
      <point x="594" y="81"/>
      <point x="594" y="219" type="curve" smooth="yes"/>
      <point x="594" y="686" type="line"/>
    </contour>
    <contour>
      <point x="398" y="895" type="line"/>
      <point x="304" y="750" type="line"/>
      <point x="373" y="750" type="line"/>
      <point x="489" y="892" type="line"/>
      <point x="488" y="895" type="line"/>
    </contour>
  </outline>
</glyph>
<glyph name="atilde" format="1">
  <advance width="585"/>
  <unicode hex="00E3"/>
  <outline>
    <contour>
      <point x="275" y="521" type="line" smooth="yes"/>
      <point x="156" y="521"/>
      <point x="65" y="458"/>
      <point x="65" y="387" type="curve" smooth="yes"/>
      <point x="65" y="372"/>
      <point x="66" y="361"/>
      <point x="67" y="354" type="curve"/>
      <point x="159" y="354" type="line"/>
      <point x="159" y="366" type="line" smooth="yes"/>
      <point x="159" y="417"/>
      <point x="201" y="446"/>
      <point x="273" y="446" type="curve" smooth="yes"/>
      <point x="344" y="446"/>
      <point x="390" y="425"/>
      <point x="390" y="354" type="curve" smooth="yes"/>
      <point x="390" y="307" type="line"/>
      <point x="133" y="307"/>
      <point x="48" y="263"/>
      <point x="48" y="142" type="curve" smooth="yes"/>
      <point x="48" y="35"/>
      <point x="105" y="-10"/>
      <point x="215" y="-10" type="curve" smooth="yes"/>
      <point x="294" y="-10"/>
      <point x="353" y="21"/>
      <point x="394" y="82" type="curve"/>
      <point x="397" y="29"/>
      <point x="421" y="-10"/>
      <point x="481" y="-10" type="curve" smooth="yes"/>
      <point x="510" y="-10"/>
      <point x="536" y="-3"/>
      <point x="558" y="10" type="curve"/>
      <point x="558" y="79" type="line"/>
      <point x="543" y="70"/>
      <point x="528" y="65"/>
      <point x="512" y="65" type="curve" smooth="yes"/>
      <point x="497" y="65"/>
      <point x="484" y="75"/>
      <point x="484" y="100" type="curve" smooth="yes"/>
      <point x="484" y="365" type="line" smooth="yes"/>
      <point x="484" y="465"/>
      <point x="420" y="521"/>
      <point x="284" y="521" type="curve" smooth="yes"/>
    </contour>
    <contour>
      <point x="390" y="214" type="line" smooth="yes"/>
      <point x="390" y="122"/>
      <point x="321" y="65"/>
      <point x="247" y="65" type="curve" smooth="yes"/>
      <point x="177" y="65"/>
      <point x="142" y="88"/>
      <point x="142" y="134" type="curve" smooth="yes"/>
      <point x="142" y="202"/>
      <point x="175" y="234"/>
      <point x="390" y="234" type="curve"/>
    </contour>
    <contour>
      <point x="421" y="720" type="line"/>
      <point x="414" y="697"/>
      <point x="395" y="685"/>
      <point x="366" y="685" type="curve" smooth="yes"/>
      <point x="349" y="685"/>
      <point x="323" y="691"/>
      <point x="286" y="702" type="curve" smooth="yes"/>
      <point x="258" y="711"/>
      <point x="231" y="720"/>
      <point x="196" y="720" type="curve" smooth="yes"/>
      <point x="124" y="720"/>
      <point x="85" y="668"/>
      <point x="85" y="616" type="curve"/>
      <point x="135" y="616" type="line"/>
      <point x="142" y="639"/>
      <point x="160" y="650"/>
      <point x="190" y="650" type="curve" smooth="yes"/>
      <point x="219" y="650"/>
      <point x="234" y="643"/>
      <point x="289" y="627" type="curve" smooth="yes"/>
      <point x="315" y="619"/>
      <point x="339" y="616"/>
      <point x="359" y="616" type="curve" smooth="yes"/>
      <point x="426" y="616"/>
      <point x="471" y="661"/>
      <point x="471" y="720" type="curve"/>
    </contour>
  </outline>
</glyph>
<glyph name="ccedilla" format="1">
  <advance width="544"/>
  <unicode hex="00E7"/>
  <outline>
    <contour>
      <point x="275" y="521" type="line" smooth="yes"/>
      <point x="141" y="521"/>
      <point x="51" y="420"/>
      <point x="51" y="267" type="curve" smooth="yes"/>
      <point x="51" y="243" type="line" smooth="yes"/>
      <point x="51" y="91"/>
      <point x="138" y="-10"/>
      <point x="276" y="-10" type="curve" smooth="yes"/>
      <point x="284" y="-10" type="line" smooth="yes"/>
      <point x="411" y="-10"/>
      <point x="495" y="71"/>
      <point x="495" y="200" type="curve"/>
      <point x="405" y="200" type="line"/>
      <point x="405" y="121"/>
      <point x="367" y="65"/>
      <point x="283" y="65" type="curve" smooth="yes"/>
      <point x="198" y="65"/>
      <point x="145" y="118"/>
      <point x="145" y="237" type="curve" smooth="yes"/>
      <point x="145" y="291" type="line" smooth="yes"/>
      <point x="145" y="388"/>
      <point x="198" y="446"/>
      <point x="280" y="446" type="curve" smooth="yes"/>
      <point x="361" y="446"/>
      <point x="402" y="390"/>
      <point x="402" y="310" type="curve"/>
      <point x="495" y="310" type="line"/>
      <point x="495" y="437"/>
      <point x="406" y="521"/>
      <point x="283" y="521" type="curve" smooth="yes"/>
    </contour>
    <contour>
      <point x="254" y="-17" type="line"/>
      <point x="254" y="-60" type="line"/>
      <point x="275" y="-60" type="line" smooth="yes"/>
      <point x="303" y="-60"/>
      <point x="327" y="-74"/>
      <point x="327" y="-101" type="curve" smooth="yes"/>
      <point x="327" y="-131"/>
      <point x="305" y="-146"/>
      <point x="260" y="-146" type="curve" smooth="yes"/>
      <point x="239" y="-146"/>
      <point x="215" y="-139"/>
      <point x="188" y="-126" type="curve"/>
      <point x="179" y="-175" type="line"/>
      <point x="206" y="-190"/>
      <point x="241" y="-197"/>
      <point x="284" y="-197" type="curve" smooth="yes"/>
      <point x="336" y="-197"/>
      <point x="389" y="-164"/>
      <point x="389" y="-106" type="curve" smooth="yes"/>
      <point x="389" y="-47"/>
      <point x="352" y="-17"/>
      <point x="278" y="-17" type="curve" smooth="yes"/>
    </contour>
  </outline>
</glyph>
<glyph name="ntilde" format="1">
  <advance width="593"/>
  <unicode hex="00F1"/>
  <outline>
    <contour>
      <point x="264" y="521"/>
      <point x="207" y="493"/>
      <point x="164" y="436" type="curve"/>
      <point x="151" y="511" type="line"/>
      <point x="83" y="511" type="line"/>
      <point x="83" y="0" type="line"/>
      <point x="177" y="0" type="line"/>
      <point x="177" y="304" type="line" smooth="yes"/>
      <point x="177" y="383"/>
      <point x="241" y="446"/>
      <point x="313" y="446" type="curve" smooth="yes"/>
      <point x="377" y="446"/>
      <point x="421" y="414"/>
      <point x="421" y="327" type="curve" smooth="yes"/>
      <point x="421" y="0" type="line"/>
      <point x="515" y="0" type="line"/>
      <point x="515" y="344" type="line" smooth="yes"/>
      <point x="515" y="462"/>
      <point x="444" y="521"/>
      <point x="335" y="521" type="curve" smooth="yes"/>
    </contour>
    <contour>
      <point x="447" y="720" type="line"/>
      <point x="440" y="697"/>
      <point x="421" y="685"/>
      <point x="392" y="685" type="curve" smooth="yes"/>
      <point x="375" y="685"/>
      <point x="349" y="691"/>
      <point x="312" y="702" type="curve" smooth="yes"/>
      <point x="284" y="711"/>
      <point x="257" y="720"/>
      <point x="222" y="720" type="curve" smooth="yes"/>
      <point x="150" y="720"/>
      <point x="111" y="668"/>
      <point x="111" y="616" type="curve"/>
      <point x="161" y="616" type="line"/>
      <point x="168" y="639"/>
      <point x="186" y="650"/>
      <point x="216" y="650" type="curve" smooth="yes"/>
      <point x="245" y="650"/>
      <point x="260" y="643"/>
      <point x="315" y="627" type="curve" smooth="yes"/>
      <point x="341" y="619"/>
      <point x="365" y="616"/>
      <point x="385" y="616" type="curve" smooth="yes"/>
      <point x="452" y="616"/>
      <point x="497" y="661"/>
      <point x="497" y="720" type="curve"/>
    </contour>
  </outline>
</glyph>
<glyph name="ocircumflex" format="1">
  <advance width="574"/>
  <unicode hex="00F4"/>
  <outline>
    <contour>
      <point x="145" y="521"/>
      <point x="52" y="429"/>
      <point x="52" y="274" type="curve" smooth="yes"/>
      <point x="52" y="237" type="line" smooth="yes"/>
      <point x="52" y="84"/>
      <point x="142" y="-10"/>
      <point x="287" y="-10" type="curve" smooth="yes"/>
      <point x="432" y="-10"/>
      <point x="522" y="84"/>
      <point x="522" y="237" type="curve" smooth="yes"/>
      <point x="522" y="274" type="line" smooth="yes"/>
      <point x="522" y="429"/>
      <point x="429" y="521"/>
      <point x="287" y="521" type="curve" smooth="yes"/>
    </contour>
    <contour>
      <point x="378" y="446"/>
      <point x="428" y="380"/>
      <point x="428" y="265" type="curve" smooth="yes"/>
      <point x="428" y="246" type="line" smooth="yes"/>
      <point x="428" y="126"/>
      <point x="374" y="65"/>
      <point x="287" y="65" type="curve" smooth="yes"/>
      <point x="196" y="65"/>
      <point x="146" y="131"/>
      <point x="146" y="246" type="curve" smooth="yes"/>
      <point x="146" y="265" type="line" smooth="yes"/>
      <point x="146" y="385"/>
      <point x="199" y="446"/>
      <point x="287" y="446" type="curve" smooth="yes"/>
    </contour>
    <contour>
      <point x="247" y="720" type="line"/>
      <point x="111" y="575" type="line"/>
      <point x="191" y="575" type="line"/>
      <point x="286" y="664" type="line"/>
      <point x="380" y="575" type="line"/>
      <point x="460" y="575" type="line"/>
      <point x="325" y="720" type="line"/>
    </contour>
  </outline>
</glyph>
<glyph name="divide" format="1">
  <advance width="615"/>
  <unicode hex="00F7"/>
  <outline>
    <contour>
      <point x="51" y="297" type="line"/>
      <point x="51" y="213" type="line"/>
      <point x="563" y="213" type="line"/>
      <point x="563" y="297" type="line"/>
    </contour>
    <contour>
      <point x="266" y="141" type="line"/>
      <point x="266" y="51" type="line"/>
      <point x="349" y="51" type="line"/>
      <point x="349" y="141" type="line"/>
    </contour>
    <contour>
      <point x="266" y="460" type="line"/>
      <point x="266" y="369" type="line"/>
      <point x="349" y="369" type="line"/>
      <point x="349" y="460" type="line"/>
    </contour>
  </outline>
</glyph>
<glyph name="iogonek" format="1">
  <advance width="260"/>
  <unicode hex="012F"/>
  <outline>
    <contour>
      <point x="81" y="720" type="line"/>
      <point x="81" y="633" type="line"/>
      <point x="179" y="633" type="line"/>
      <point x="179" y="720" type="line"/>
    </contour>
    <component base="dotlessi"/>
    <component base="ogonek" xOffset="-3"/>
  </outline>
</glyph>
<glyph name="dotlessi" format="1">
  <advance width="260"/>
  <unicode hex="0131"/>
  <outline>
    <contour>
      <point x="83" y="511" type="line"/>
      <point x="83" y="0" type="line"/>
      <point x="177" y="0" type="line"/>
      <point x="177" y="511" type="line"/>
    </contour>
    <contour>
      <point x="174" y="10" type="move" name="ogonek"/>
    </contour>
    <contour>
      <point x="130" y="511" type="move" name="top"/>
    </contour>
  </outline>
</glyph>
<glyph name="Lslash" format="1">
  <advance width="539"/>
  <unicode hex="0141"/>
  <outline>
    <contour>
      <point x="95" y="686" type="line"/>
      <point x="95" y="395" type="line"/>
      <point x="33" y="364" type="line"/>
      <point x="33" y="293" type="line"/>
      <point x="95" y="324" type="line"/>
      <point x="95" y="0" type="line"/>
      <point x="522" y="0" type="line"/>
      <point x="508" y="89" type="line"/>
      <point x="193" y="89" type="line"/>
      <point x="193" y="374" type="line"/>
      <point x="332" y="446" type="line"/>
      <point x="332" y="517" type="line"/>
      <point x="193" y="445" type="line"/>
      <point x="193" y="686" type="line"/>
    </contour>
  </outline>
</glyph>
<glyph name="oe" format="1">
  <advance width="933"/>
  <unicode hex="0153"/>
  <outline>
    <contour>
      <point x="658" y="521" type="line" smooth="yes"/>
      <point x="579" y="521"/>
      <point x="519" y="492"/>
      <point x="476" y="434" type="curve"/>
      <point x="435" y="492"/>
      <point x="372" y="521"/>
      <point x="287" y="521" type="curve" smooth="yes"/>
      <point x="145" y="521"/>
      <point x="52" y="429"/>
      <point x="52" y="274" type="curve" smooth="yes"/>
      <point x="52" y="237" type="line" smooth="yes"/>
      <point x="52" y="84"/>
      <point x="142" y="-10"/>
      <point x="287" y="-10" type="curve" smooth="yes"/>
      <point x="372" y="-10"/>
      <point x="435" y="19"/>
      <point x="476" y="77" type="curve"/>
      <point x="519" y="19"/>
      <point x="581" y="-10"/>
      <point x="661" y="-10" type="curve" smooth="yes"/>
      <point x="665" y="-10" type="line" smooth="yes"/>
      <point x="792" y="-10"/>
      <point x="879" y="71"/>
      <point x="879" y="190" type="curve"/>
      <point x="790" y="190" type="line"/>
      <point x="790" y="130"/>
      <point x="758" y="65"/>
      <point x="667" y="65" type="curve" smooth="yes"/>
      <point x="571" y="65"/>
      <point x="525" y="128"/>
      <point x="522" y="234" type="curve"/>
      <point x="879" y="234" type="line"/>
      <point x="879" y="305" type="line" smooth="yes"/>
      <point x="879" y="439"/>
      <point x="790" y="521"/>
      <point x="665" y="521" type="curve" smooth="yes"/>
    </contour>
    <contour>
      <point x="378" y="446"/>
      <point x="428" y="380"/>
      <point x="428" y="265" type="curve" smooth="yes"/>
      <point x="428" y="246" type="line" smooth="yes"/>
      <point x="428" y="126"/>
      <point x="374" y="65"/>
      <point x="287" y="65" type="curve" smooth="yes"/>
      <point x="196" y="65"/>
      <point x="146" y="131"/>
      <point x="146" y="246" type="curve" smooth="yes"/>
      <point x="146" y="265" type="line" smooth="yes"/>
      <point x="146" y="385"/>
      <point x="199" y="446"/>
      <point x="287" y="446" type="curve" smooth="yes"/>
    </contour>
    <contour>
      <point x="736" y="446"/>
      <point x="786" y="395"/>
      <point x="786" y="319" type="curve" smooth="yes"/>
      <point x="786" y="307" type="line"/>
      <point x="524" y="307" type="line"/>
      <point x="535" y="400"/>
      <point x="585" y="446"/>
      <point x="660" y="446" type="curve" smooth="yes"/>
    </contour>
    <contour>
      <point x="467" y="511" type="move" name="top"/>
    </contour>
  </outline>
</glyph>
<glyph name="zcaron" format="1">
  <advance width="463"/>
  <unicode hex="017E"/>
  <outline>
    <contour>
      <point x="51" y="511" type="line"/>
      <point x="51" y="436" type="line"/>
      <point x="285" y="436" type="line"/>
      <point x="36" y="38" type="line"/>
      <point x="36" y="0" type="line"/>
      <point x="423" y="0" type="line"/>
      <point x="423" y="75" type="line"/>
      <point x="165" y="75" type="line"/>
      <point x="415" y="474" type="line"/>
      <point x="415" y="511" type="line"/>
    </contour>
    <contour>
      <point x="326" y="720" type="line"/>
      <point x="232" y="631" type="line"/>
      <point x="137" y="720" type="line"/>
      <point x="57" y="720" type="line"/>
      <point x="193" y="575" type="line"/>
      <point x="271" y="575" type="line"/>
      <point x="406" y="720" type="line"/>
    </contour>
  </outline>
</glyph>
<glyph name="florin" format="1">
  <advance width="360"/>
  <unicode hex="0192"/>
  <outline>
    <contour>
      <point x="208" y="728"/>
      <point x="159" y="686"/>
      <point x="147" y="602" type="curve" smooth="yes"/>
      <point x="134" y="511" type="line"/>
      <point x="75" y="511" type="line"/>
      <point x="66" y="436" type="line"/>
      <point x="125" y="436" type="line"/>
      <point x="54" y="-46" type="line"/>
      <point x="49" y="-91"/>
      <point x="33" y="-110"/>
      <point x="-21" y="-110" type="curve" smooth="yes"/>
      <point x="-34" y="-110"/>
      <point x="-51" y="-105"/>
      <point x="-72" y="-96" type="curve"/>
      <point x="-80" y="-165" type="line"/>
      <point x="-60" y="-178"/>
      <point x="-32" y="-184"/>
      <point x="4" y="-184" type="curve" smooth="yes"/>
      <point x="77" y="-184"/>
      <point x="134" y="-147"/>
      <point x="147" y="-58" type="curve" smooth="yes"/>
      <point x="218" y="436" type="line"/>
      <point x="338" y="436" type="line"/>
      <point x="347" y="511" type="line"/>
      <point x="227" y="511" type="line"/>
      <point x="239" y="590" type="line"/>
      <point x="243" y="628"/>
      <point x="258" y="654"/>
      <point x="305" y="654" type="curve" smooth="yes"/>
      <point x="324" y="654"/>
      <point x="344" y="649"/>
      <point x="365" y="640" type="curve"/>
      <point x="374" y="709" type="line"/>
      <point x="353" y="722"/>
      <point x="325" y="728"/>
      <point x="290" y="728" type="curve" smooth="yes"/>
    </contour>
  </outline>
</glyph>
<glyph name="circumflex" format="1">
  <advance width="536"/>
  <unicode hex="02C6"/>
  <outline>
    <contour>
      <point x="228" y="720" type="line"/>
      <point x="92" y="575" type="line"/>
      <point x="172" y="575" type="line"/>
      <point x="267" y="664" type="line"/>
      <point x="361" y="575" type="line"/>
      <point x="441" y="575" type="line"/>
      <point x="306" y="720" type="line"/>
    </contour>
    <contour>
      <point x="266.5" y="511" type="move" name="_top"/>
    </contour>
  </outline>
</glyph>
<glyph name="breve" format="1">
  <advance width="520"/>
  <unicode hex="02D8"/>
  <outline>
    <contour>
      <point x="385" y="737" type="line"/>
      <point x="374" y="701"/>
      <point x="321" y="675"/>
      <point x="260" y="675" type="curve" smooth="yes"/>
      <point x="197" y="675"/>
      <point x="146" y="701"/>
      <point x="135" y="737" type="curve"/>
      <point x="68" y="737" type="line"/>
      <point x="68" y="676"/>
      <point x="163" y="613"/>
      <point x="260" y="613" type="curve" smooth="yes"/>
      <point x="355" y="613"/>
      <point x="453" y="675"/>
      <point x="453" y="737" type="curve"/>
    </contour>
    <contour>
      <point x="260.5" y="511" type="move" name="_top"/>
    </contour>
  </outline>
</glyph>
<glyph name="mu" format="1">
  <advance width="612"/>
  <unicode hex="03BC"/>
  <outline>
    <contour>
      <point x="420" y="511" type="line"/>
      <point x="420" y="207" type="line" smooth="yes"/>
      <point x="420" y="127"/>
      <point x="355" y="65"/>
      <point x="284" y="65" type="curve" smooth="yes"/>
      <point x="220" y="65"/>
      <point x="176" y="97"/>
      <point x="176" y="184" type="curve" smooth="yes"/>
      <point x="176" y="511" type="line"/>
      <point x="82" y="511" type="line"/>
      <point x="82" y="-161" type="line"/>
      <point x="176" y="-161" type="line"/>
      <point x="176" y="-32" type="line"/>
      <point x="170" y="15" type="line"/>
      <point x="197" y="-2"/>
      <point x="229" y="-10"/>
      <point x="264" y="-10" type="curve" smooth="yes"/>
      <point x="332" y="-10"/>
      <point x="392" y="25"/>
      <point x="425" y="74" type="curve"/>
      <point x="427" y="27"/>
      <point x="446" y="-10"/>
      <point x="524" y="-10" type="curve" smooth="yes"/>
      <point x="546" y="-10"/>
      <point x="567" y="-3"/>
      <point x="587" y="10" type="curve"/>
      <point x="587" y="79" type="line"/>
      <point x="572" y="70"/>
      <point x="557" y="65"/>
      <point x="542" y="65" type="curve" smooth="yes"/>
      <point x="527" y="65"/>
      <point x="514" y="75"/>
      <point x="514" y="100" type="curve" smooth="yes"/>
      <point x="514" y="511" type="line"/>
    </contour>
  </outline>
</glyph>
<glyph name="pi" format="1">
  <advance width="628"/>
  <unicode hex="03C0"/>
  <outline>
    <contour>
      <point x="181" y="511" type="line" smooth="yes"/>
      <point x="101" y="511"/>
      <point x="47" y="501"/>
      <point x="20" y="482" type="curve"/>
      <point x="33" y="425" type="line"/>
      <point x="57" y="433"/>
      <point x="97" y="437"/>
      <point x="152" y="437" type="curve"/>
      <point x="146" y="254"/>
      <point x="115" y="94"/>
      <point x="81" y="0" type="curve"/>
      <point x="171" y="0" type="line"/>
      <point x="180" y="21"/>
      <point x="188" y="50"/>
      <point x="196" y="87" type="curve" smooth="yes"/>
      <point x="222" y="201"/>
      <point x="238" y="318"/>
      <point x="243" y="437" type="curve"/>
      <point x="417" y="437" type="line"/>
      <point x="417" y="143" type="line" smooth="yes"/>
      <point x="417" y="65"/>
      <point x="423" y="17"/>
      <point x="434" y="0" type="curve"/>
      <point x="523" y="0" type="line"/>
      <point x="513" y="31"/>
      <point x="508" y="82"/>
      <point x="508" y="152" type="curve" smooth="yes"/>
      <point x="508" y="437" type="line"/>
      <point x="595" y="437" type="line"/>
      <point x="604" y="511" type="line"/>
    </contour>
  </outline>
</glyph>
<glyph name="endash" format="1">
  <advance width="638"/>
  <unicode hex="2013"/>
  <outline>
    <contour>
      <point x="69" y="318" type="line"/>
      <point x="69" y="223" type="line"/>
      <point x="569" y="223" type="line"/>
      <point x="569" y="318" type="line"/>
    </contour>
  </outline>
</glyph>
<glyph name="quotedblleft" format="1">
  <advance width="366"/>
  <unicode hex="201C"/>
  <outline>
    <contour>
      <point x="238" y="686" type="line"/>
      <point x="203" y="536" type="line"/>
      <point x="203" y="451" type="line"/>
      <point x="304" y="451" type="line"/>
      <point x="304" y="562" type="line"/>
      <point x="263" y="562" type="line"/>
      <point x="290" y="686" type="line"/>
    </contour>
    <contour>
      <point x="96" y="686" type="line"/>
      <point x="61" y="536" type="line"/>
      <point x="61" y="451" type="line"/>
      <point x="162" y="451" type="line"/>
      <point x="162" y="562" type="line"/>
      <point x="121" y="562" type="line"/>
      <point x="148" y="686" type="line"/>
    </contour>
  </outline>
</glyph>
<glyph name="daggerdbl" format="1">
  <advance width="533"/>
  <unicode hex="2021"/>
  <outline>
    <contour>
      <point x="223" y="686" type="line"/>
      <point x="240" y="492" type="line"/>
      <point x="35" y="510" type="line"/>
      <point x="35" y="417" type="line"/>
      <point x="140" y="425"/>
      <point x="209" y="431"/>
      <point x="240" y="434" type="curve"/>
      <point x="236" y="399"/>
      <point x="230" y="339"/>
      <point x="223" y="256" type="curve"/>
      <point x="228" y="196"/>
      <point x="233" y="136"/>
      <point x="240" y="76" type="curve"/>
      <point x="172" y="81"/>
      <point x="103" y="86"/>
      <point x="35" y="93" type="curve"/>
      <point x="35" y="0" type="line"/>
      <point x="240" y="18" type="line"/>
      <point x="236" y="-19"/>
      <point x="230" y="-83"/>
      <point x="223" y="-175" type="curve"/>
      <point x="310" y="-175" type="line"/>
      <point x="303" y="-83"/>
      <point x="297" y="-19"/>
      <point x="293" y="18" type="curve"/>
      <point x="498" y="0" type="line"/>
      <point x="498" y="93" type="line"/>
      <point x="459" y="89"/>
      <point x="391" y="83"/>
      <point x="293" y="76" type="curve"/>
      <point x="300" y="136"/>
      <point x="305" y="196"/>
      <point x="310" y="256" type="curve"/>
      <point x="303" y="339"/>
      <point x="297" y="399"/>
      <point x="293" y="434" type="curve"/>
      <point x="498" y="417" type="line"/>
      <point x="498" y="510" type="line"/>
      <point x="293" y="492" type="line"/>
      <point x="310" y="686" type="line"/>
    </contour>
  </outline>
</glyph>
<glyph name="bullet" format="1">
  <advance width="600"/>
  <unicode hex="2022"/>
  <outline>
    <contour>
      <point x="218" y="496"/>
      <point x="150" y="429"/>
      <point x="150" y="344" type="curve" smooth="yes"/>
      <point x="150" y="261"/>
      <point x="217" y="191"/>
      <point x="299" y="191" type="curve" smooth="yes"/>
      <point x="379" y="191"/>
      <point x="450" y="256"/>
      <point x="450" y="344" type="curve" smooth="yes"/>
      <point x="450" y="427"/>
      <point x="380" y="496"/>
      <point x="299" y="496" type="curve" smooth="yes"/>
    </contour>
  </outline>
</glyph>
<glyph name="guilsinglright" format="1">
  <advance width="278"/>
  <unicode hex="203A"/>
  <outline>
    <contour>
      <point x="56" y="511" type="line"/>
      <point x="150" y="337" type="line"/>
      <point x="56" y="163" type="line"/>
      <point x="107" y="163" type="line"/>
      <point x="229" y="337" type="line"/>
      <point x="107" y="511" type="line"/>
    </contour>
  </outline>
</glyph>
<glyph name="trademark" format="1">
  <advance width="897"/>
  <unicode hex="2122"/>
  <outline>
    <contour>
      <point x="727" y="686" type="line"/>
      <point x="604" y="385" type="line"/>
      <point x="563" y="485"/>
      <point x="523" y="586"/>
      <point x="483" y="686" type="curve"/>
      <point x="384" y="686" type="line"/>
      <point x="384" y="288" type="line"/>
      <point x="442" y="288" type="line"/>
      <point x="442" y="600" type="line"/>
      <point x="485" y="496"/>
      <point x="525" y="392"/>
      <point x="568" y="288" type="curve"/>
      <point x="630" y="288" type="line"/>
      <point x="758" y="603" type="line"/>
      <point x="759" y="550"/>
      <point x="760" y="498"/>
      <point x="760" y="446" type="curve" smooth="yes"/>
      <point x="760" y="288" type="line"/>
      <point x="825" y="288" type="line"/>
      <point x="825" y="686" type="line"/>
    </contour>
    <contour>
      <point x="46" y="686" type="line"/>
      <point x="46" y="626" type="line"/>
      <point x="171" y="626" type="line"/>
      <point x="171" y="288" type="line"/>
      <point x="236" y="288" type="line"/>
      <point x="236" y="626" type="line"/>
      <point x="360" y="626" type="line"/>
      <point x="360" y="686" type="line"/>
    </contour>
  </outline>
</glyph>
<glyph name="increment" format="1">
  <advance width="622"/>
  <unicode hex="2206"/>
  <outline>
    <contour>
      <point x="259" y="686" type="line"/>
      <point x="25" y="65" type="line"/>
      <point x="25" y="0" type="line"/>
      <point x="597" y="0" type="line"/>
      <point x="597" y="65" type="line"/>
      <point x="362" y="686" type="line"/>
    </contour>
    <contour>
      <point x="509" y="65" type="line"/>
      <point x="113" y="65" type="line"/>
      <point x="311" y="597" type="line"/>
    </contour>
  </outline>
</glyph>
<glyph name="fl" format="1">
  <advance width="607"/>
  <unicode hex="FB02"/>
  <outline>
    <contour>
      <point x="143" y="728"/>
      <point x="103" y="679"/>
      <point x="103" y="580" type="curve" smooth="yes"/>
      <point x="103" y="511" type="line"/>
      <point x="47" y="511" type="line"/>
      <point x="47" y="436" type="line"/>
      <point x="103" y="436" type="line"/>
      <point x="103" y="0" type="line"/>
      <point x="197" y="0" type="line"/>
      <point x="197" y="436" type="line"/>
      <point x="316" y="436" type="line"/>
      <point x="316" y="511" type="line"/>
      <point x="197" y="511" type="line"/>
      <point x="197" y="590" type="line" smooth="yes"/>
      <point x="197" y="634"/>
      <point x="210" y="653"/>
      <point x="265" y="653" type="curve" smooth="yes"/>
      <point x="278" y="653"/>
      <point x="295" y="649"/>
      <point x="316" y="640" type="curve"/>
      <point x="316" y="709" type="line"/>
      <point x="291" y="722"/>
      <point x="259" y="728"/>
      <point x="222" y="728" type="curve" smooth="yes"/>
    </contour>
    <contour>
      <point x="426" y="720" type="line"/>
      <point x="426" y="0" type="line"/>
      <point x="520" y="0" type="line"/>
      <point x="520" y="720" type="line"/>
    </contour>
  </outline>
</glyph>
